<svg width="699" height="379" viewBox="0 0 699 379" fill="none" xmlns="http://www.w3.org/2000/svg">
<path d="M418.101 362.476L417.454 361.714L417.454 361.714L418.101 362.476ZM395.624 142.287L394.917 141.58L394.917 141.58L395.624 142.287ZM533.874 349.169L534.031 350.157L534.031 350.157L533.874 349.169ZM8.70711 238.83C8.31658 238.44 7.68342 238.44 7.29289 238.83L0.928932 245.194C0.538408 245.585 0.538408 246.218 0.928932 246.608C1.31946 246.999 1.95262 246.999 2.34315 246.608L8 240.951L13.6569 246.608C14.0474 246.999 14.6805 246.999 15.0711 246.608C15.4616 246.218 15.4616 245.585 15.0711 245.194L8.70711 238.83ZM260.758 191.83L260.758 192.83L260.758 192.83L260.758 191.83ZM7 239.537C7 241.695 7.01778 243.806 7.05306 245.871L9.05277 245.837C9.01769 243.783 9 241.684 9 239.537H7ZM7.47263 257.72C7.71111 262.035 8.03845 266.118 8.45146 269.978L10.4401 269.765C10.0311 265.942 9.70635 261.893 9.46958 257.61L7.47263 257.72ZM10.1299 281.965C10.8852 286.227 11.7719 290.151 12.784 293.752L14.7094 293.21C13.7172 289.68 12.8445 285.822 12.0992 281.616L10.1299 281.965ZM16.891 305.198C18.7465 309.278 20.8469 312.748 23.1782 315.648L24.7369 314.395C22.526 311.645 20.509 308.322 18.7116 304.37L16.891 305.198ZM32.4769 323.652C36.1238 325.684 40.0834 326.841 44.2998 327.238L44.4875 325.247C40.5216 324.873 36.8336 323.79 33.45 321.905L32.4769 323.652ZM56.5007 326.507C60.275 325.779 64.191 324.619 68.2243 323.091L67.5157 321.221C63.568 322.717 59.7632 323.84 56.1217 324.543L56.5007 326.507ZM79.3656 318.122C82.832 316.366 86.3688 314.395 89.9633 312.241L88.9354 310.525C85.375 312.658 81.8797 314.606 78.4615 316.338L79.3656 318.122ZM100.161 305.764C103.432 303.579 106.74 301.271 110.078 298.864L108.908 297.242C105.587 299.637 102.298 301.931 99.0499 304.101L100.161 305.764ZM119.762 291.676C122.914 289.274 126.085 286.803 129.268 284.28L128.026 282.713C124.851 285.229 121.69 287.692 118.55 290.085L119.762 291.676ZM138.656 276.726C141.754 274.2 144.858 271.64 147.96 269.062L146.682 267.523C143.583 270.098 140.485 272.654 137.392 275.176L138.656 276.726ZM157.21 261.33C160.294 258.74 163.37 256.149 166.432 253.57L165.144 252.04C162.081 254.619 159.006 257.21 155.924 259.798L157.21 261.33ZM175.651 245.822C178.755 243.222 181.839 240.651 184.895 238.127L183.621 236.585C180.561 239.113 177.473 241.687 174.366 244.289L175.651 245.822ZM194.201 230.527C197.38 227.965 200.52 225.474 203.614 223.075L202.388 221.495C199.283 223.903 196.133 226.401 192.946 228.97L194.201 230.527ZM213.198 215.839C216.551 213.385 219.834 211.072 223.034 208.929L221.922 207.267C218.694 209.428 215.388 211.757 212.016 214.225L213.198 215.839ZM233.226 202.542C236.928 200.402 240.482 198.567 243.866 197.087L243.065 195.255C239.597 196.771 235.977 198.642 232.225 200.811L233.226 202.542ZM255.002 193.432C257.021 193.034 258.941 192.83 260.758 192.83L260.758 190.83C258.792 190.83 256.742 191.051 254.615 191.47L255.002 193.432ZM260.758 192.83C262.897 192.83 264.971 192.942 266.983 193.161L267.2 191.173C265.113 190.946 262.967 190.83 260.758 190.83L260.758 192.83ZM278.893 195.903C282.786 197.315 286.42 199.186 289.823 201.461L290.935 199.798C287.404 197.439 283.627 195.492 279.575 194.023L278.893 195.903ZM299.281 209.345C302.1 212.203 304.737 215.374 307.216 218.81L308.838 217.639C306.307 214.132 303.605 210.881 300.705 207.94L299.281 209.345ZM313.894 229.318C315.886 232.85 317.762 236.559 319.541 240.407L321.356 239.568C319.558 235.678 317.658 231.921 315.637 228.336L313.894 229.318ZM324.427 251.885C325.935 255.717 327.372 259.639 328.751 263.62L330.641 262.965C329.254 258.963 327.808 255.015 326.288 251.152L324.427 251.885ZM332.669 275.511C333.922 279.49 335.133 283.494 336.316 287.493L338.234 286.926C337.049 282.919 335.834 278.903 334.577 274.91L332.669 275.511ZM339.819 299.538C340.99 303.606 342.147 307.639 343.302 311.602L345.222 311.042C344.068 307.084 342.913 303.055 341.741 298.985L339.819 299.538ZM346.899 323.628C348.17 327.74 349.46 331.734 350.787 335.566L352.677 334.912C351.359 331.106 350.076 327.134 348.809 323.038L346.899 323.628ZM355.256 347.4C356.965 351.504 358.76 355.321 360.675 358.778L362.425 357.808C360.554 354.432 358.79 350.685 357.102 346.631L355.256 347.4ZM367.894 369.257C370.974 372.723 374.381 375.373 378.204 376.977L378.978 375.132C375.494 373.671 372.322 371.228 369.388 367.928L367.894 369.257ZM390.989 378.398C394.755 377.812 398.791 376.414 403.137 374.133L402.208 372.362C398.012 374.564 394.186 375.877 390.682 376.422L390.989 378.398ZM413.66 367.331C415.314 366.079 417.01 364.715 418.749 363.238L417.454 361.714C415.741 363.169 414.074 364.509 412.452 365.737L413.66 367.331ZM418.749 363.238C420.713 361.569 422.642 359.901 424.537 358.234L423.215 356.732C421.33 358.392 419.41 360.053 417.454 361.714L418.749 363.238ZM435.834 347.91C437.705 346.134 439.537 344.359 441.33 342.585L439.924 341.163C438.14 342.927 436.318 344.692 434.456 346.46L435.834 347.91ZM441.33 342.585C442.802 341.13 444.248 339.677 445.669 338.224L444.239 336.826C442.827 338.27 441.388 339.716 439.924 341.163L441.33 342.585ZM453.888 329.53C456.675 326.476 459.351 323.431 461.918 320.395L460.391 319.104C457.84 322.119 455.181 325.146 452.41 328.182L453.888 329.53ZM469.515 311.039C472.02 307.823 474.404 304.619 476.671 301.432L475.041 300.273C472.791 303.436 470.425 306.616 467.937 309.811L469.515 311.039ZM483.468 291.382C485.697 287.908 487.788 284.456 489.745 281.029L488.008 280.037C486.068 283.434 483.995 286.856 481.784 290.302L483.468 291.382ZM495.44 270.381C497.279 266.695 498.963 263.042 500.498 259.427L498.657 258.646C497.138 262.222 495.471 265.838 493.65 269.488L495.44 270.381ZM504.849 248.168C506.207 244.266 507.39 240.414 508.407 236.618L506.475 236.101C505.471 239.848 504.302 243.653 502.96 247.511L504.849 248.168ZM511.075 224.812C511.825 220.731 512.378 216.727 512.746 212.807L510.755 212.62C510.392 216.481 509.847 220.427 509.108 224.451L511.075 224.812ZM513.306 200.689C513.295 196.535 513.068 192.494 512.642 188.576L510.653 188.792C511.072 192.639 511.295 196.609 511.306 200.694L513.306 200.689ZM510.644 176.62C509.72 172.575 508.569 168.695 507.211 164.994L505.334 165.683C506.662 169.303 507.789 173.101 508.694 177.065L510.644 176.62ZM502.232 153.869C500.271 150.213 498.083 146.793 495.695 143.629L494.098 144.834C496.423 147.914 498.556 151.246 500.47 154.814L502.232 153.869ZM487.555 134.543C484.542 131.715 481.328 129.211 477.947 127.057L476.872 128.744C480.145 130.829 483.262 133.256 486.187 136.001L487.555 134.543ZM467.04 121.551C463.231 120.093 459.285 119.036 455.241 118.406L454.933 120.382C458.836 120.99 462.646 122.01 466.325 123.419L467.04 121.551ZM443.037 117.815C439.064 118.041 435.04 118.673 431 119.732L431.508 121.667C435.421 120.641 439.312 120.03 443.151 119.812L443.037 117.815ZM419.532 123.9C415.985 125.556 412.452 127.557 408.954 129.916L410.072 131.574C413.487 129.271 416.93 127.323 420.379 125.712L419.532 123.9ZM399.396 137.356C397.891 138.692 396.397 140.099 394.917 141.58L396.331 142.994C397.784 141.541 399.249 140.161 400.723 138.852L399.396 137.356ZM394.917 141.58C393.605 142.891 392.329 144.386 391.093 146.045L392.697 147.239C393.883 145.647 395.097 144.228 396.331 142.994L394.917 141.58ZM385.045 156.098C383.42 159.384 381.903 162.988 380.515 166.858L382.398 167.533C383.762 163.726 385.25 160.194 386.838 156.985L385.045 156.098ZM377.086 177.98C376.13 181.616 375.28 185.412 374.55 189.336L376.516 189.702C377.238 185.824 378.077 182.076 379.021 178.488L377.086 177.98ZM372.804 200.846C372.357 204.624 372.02 208.486 371.804 212.409L373.801 212.518C374.015 208.638 374.348 204.818 374.79 201.081L372.804 200.846ZM371.529 224.038C371.558 227.877 371.707 231.752 371.985 235.643L373.98 235.5C373.705 231.653 373.558 227.821 373.529 224.022L371.529 224.038ZM373.199 247.209C373.731 251.036 374.397 254.86 375.204 258.66L377.161 258.244C376.363 254.492 375.706 250.716 375.18 246.934L373.199 247.209ZM378.053 269.94C379.148 273.661 380.393 277.341 381.797 280.961L383.661 280.238C382.279 276.672 381.052 273.045 379.971 269.376L378.053 269.94ZM386.491 291.618C388.217 295.092 390.11 298.488 392.179 301.786L393.873 300.723C391.841 297.484 389.98 294.146 388.282 290.728L386.491 291.618ZM398.885 311.324C401.272 314.36 403.838 317.282 406.59 320.074L408.014 318.67C405.316 315.933 402.799 313.066 400.457 310.088L398.885 311.324ZM415.237 327.897C418.225 330.304 421.39 332.574 424.739 334.692L425.808 333.002C422.524 330.924 419.421 328.699 416.492 326.34L415.237 327.897ZM434.897 340.359C436.635 341.208 438.415 342.02 440.236 342.794L441.019 340.954C439.229 340.193 437.481 339.395 435.775 338.562L434.897 340.359ZM440.236 342.794C442.045 343.563 443.896 344.294 445.789 344.986L446.476 343.107C444.614 342.427 442.796 341.709 441.019 340.954L440.236 342.794ZM457.188 348.529C460.93 349.501 464.816 350.333 468.851 351.016L469.184 349.044C465.205 348.37 461.375 347.55 457.691 346.593L457.188 348.529ZM480.671 352.545C484.513 352.895 488.475 353.121 492.561 353.216L492.607 351.217C488.565 351.123 484.648 350.899 480.853 350.553L480.671 352.545ZM504.461 353.13C508.318 352.988 512.276 352.738 516.337 352.374L516.159 350.382C512.132 350.743 508.209 350.991 504.387 351.131L504.461 353.13ZM528.145 351.029C530.085 350.763 532.047 350.473 534.031 350.157L533.717 348.182C531.747 348.495 529.799 348.784 527.873 349.048L528.145 351.029ZM534.031 350.157C536.164 349.818 538.213 349.419 540.18 348.964L539.728 347.015C537.809 347.46 535.806 347.849 533.717 348.182L534.031 350.157ZM551.582 345.315C555.504 343.652 558.986 341.675 562.061 339.405L560.873 337.796C557.933 339.966 554.59 341.868 550.801 343.474L551.582 345.315ZM570.695 330.991C573.157 327.814 575.16 324.322 576.761 320.552L574.92 319.771C573.381 323.396 571.462 326.737 569.114 329.766L570.695 330.991ZM580.297 309.007C581.08 305.217 581.588 301.235 581.861 297.083L579.865 296.952C579.598 301.026 579.1 304.916 578.339 308.602L580.297 309.007ZM582.044 285.127C581.931 281.274 581.668 277.308 581.28 273.242L579.289 273.432C579.674 277.461 579.933 281.383 580.045 285.186L582.044 285.127ZM579.859 261.433C579.31 257.583 578.677 253.662 577.977 249.681L576.007 250.027C576.704 253.991 577.334 257.89 577.879 261.715L579.859 261.433ZM575.775 237.969C575.01 234.118 574.201 230.222 573.363 226.289L571.407 226.706C572.243 230.632 573.05 234.519 573.813 238.358L575.775 237.969ZM570.838 214.676C569.992 210.837 569.132 206.971 568.271 203.089L566.318 203.522C567.179 207.406 568.039 211.269 568.885 215.107L570.838 214.676ZM565.72 191.481C564.881 187.615 564.055 183.741 563.254 179.864L561.295 180.269C562.098 184.154 562.926 188.035 563.765 191.905L565.72 191.481ZM560.936 168.231C560.192 164.327 559.486 160.43 558.831 156.546L556.859 156.879C557.516 160.778 558.225 164.69 558.972 168.606L560.936 168.231ZM557.017 144.829C556.466 140.892 555.983 136.978 555.581 133.096L553.591 133.302C553.996 137.211 554.483 141.148 555.036 145.106L557.017 144.829ZM554.617 121.303C554.384 117.307 554.256 113.356 554.248 109.459L552.248 109.463C552.256 113.401 552.385 117.39 552.62 121.419L554.617 121.303ZM554.621 97.6511C554.891 93.6735 555.312 89.7674 555.902 85.9437L553.926 85.6384C553.326 89.5233 552.899 93.4864 552.626 97.5159L554.621 97.6511ZM558.278 74.4393C559.283 70.6165 560.496 66.8973 561.937 63.2938L560.08 62.5512C558.607 66.236 557.369 70.0338 556.344 73.9305L558.278 74.4393ZM567.033 52.7252C568.961 49.3616 571.14 46.1254 573.593 43.0289L572.025 41.7873C569.509 44.9637 567.274 48.2827 565.298 51.7306L567.033 52.7252ZM581.499 34.4422C584.257 31.8549 587.266 29.3944 590.542 27.0712L589.385 25.4397C586.037 27.8144 582.957 30.3323 580.131 32.9835L581.499 34.4422ZM600.516 20.8855C603.882 19.0624 607.471 17.3545 611.296 15.7693L610.531 13.9217C606.645 15.532 602.993 17.2693 599.564 19.1269L600.516 20.8855ZM622.165 11.8067C625.773 10.6554 629.558 9.5971 633.528 8.63623L633.057 6.69236C629.044 7.66384 625.213 8.73488 621.557 9.90138L622.165 11.8067ZM645.176 6.19613C648.875 5.53355 652.714 4.94551 656.697 4.43484L656.443 2.45107C652.428 2.96575 648.556 3.55876 644.824 4.22747L645.176 6.19613ZM668.641 3.17484C672.396 2.85913 676.267 2.60548 680.257 2.4158L680.162 0.418058C676.149 0.608837 672.254 0.864039 668.473 1.18187L668.641 3.17484ZM692.171 2.04663C694.213 2.01562 696.284 2 698.383 2V0C696.274 0 694.193 0.015689 692.141 0.0468621L692.171 2.04663Z" fill="#0FAE96"/>
</svg>
