<svg xmlns="http://www.w3.org/2000/svg" viewBox="0 0 472.35 223.03"><defs><style>.cls-1{fill:#0daf97;}.cls-2{fill:#fff;}</style></defs><g id="Calque_2" data-name="Calque 2"><g id="Calque_1-2" data-name="Calque 1"><path class="cls-1" d="M114.9,189.33c-1.4,2.59-5.54,6.11-11.43,9.44a30.92,30.92,0,0,0-3.22-2.49q3-4.29,6.28-8.84a88.71,88.71,0,0,0,6-9.35,54.18,54.18,0,0,0,4.21-9.75A26.17,26.17,0,0,0,115,147.92a25.29,25.29,0,0,0-5.46-6.95,22.67,22.67,0,0,0-6.86-4.13,45.5,45.5,0,0,0-7-2.07,33.87,33.87,0,0,0-5.62-.74c-1.6-.06-2.67-.09-3.22-.09a66.05,66.05,0,0,0-21.25,4.47,85.63,85.63,0,0,0-18.36,9.75,77.5,77.5,0,0,0-14,12.49A48.38,48.38,0,0,0,25,173.3a14.06,14.06,0,0,0-.74,6.53,13.11,13.11,0,0,0,2.23,5.87,5.25,5.25,0,0,0,4.63,2.15,6.11,6.11,0,0,0,2.9-.66,3.26,3.26,0,0,0,1.57-1.49,16.86,16.86,0,0,1,2.89-6.95,52,52,0,0,1,6.86-8.26,77.35,77.35,0,0,1,10-8.35A75.34,75.34,0,0,1,67.76,155a71.38,71.38,0,0,1,14.14-4.72,49.34,49.34,0,0,1,15-1c1.1.22,2.37.5,3.81.83a6.91,6.91,0,0,1,3.55,2,6.21,6.21,0,0,1,1.49,4.22c0,1.82-.74,4.38-2.4,7.69a117.49,117.49,0,0,1-9.92,15.62,113.17,113.17,0,0,0-8.1,11.83c-1.32-.11-2.65-.17-4-.17a24.17,24.17,0,0,0-4,.33A28.45,28.45,0,0,0,71.31,193a52.74,52.74,0,0,0-5.78,2.31q5.11-7.93,9.26-14.72t5-11.08A13.87,13.87,0,0,0,78.67,161a9.67,9.67,0,0,0-6.2-5.54,24.78,24.78,0,0,0-2.48-.25,4.23,4.23,0,0,0-2.81.91,3.75,3.75,0,0,0-1.57,2.15,1.14,1.14,0,0,0,.91,1.49Q62.38,166,57,174.21T46.68,190.66c-2.18,3.63-4.19,7.15-6,10.54C22,190.17,9.61,171.66,3.49,160.75a26.05,26.05,0,0,1-1.8-22.18,17.32,17.32,0,0,1,3.17-5.41c5.36-5.87,11.49-20.43,16.85-56.43s42.13-66.38,58.72-71,44.43-5.87,58.22,2.56c7.49,4.57,12.41,6.51,17.8,13.8L151.23,29a14.53,14.53,0,0,0-5.4-8.13,15.41,15.41,0,0,0-9.42-2.92,23.68,23.68,0,0,0-10,2.6Q120.94,23.1,114.31,30A115.12,115.12,0,0,0,97.54,51.9,130.24,130.24,0,0,0,86.1,77.06a76.9,76.9,0,0,0-3.32,13.45,60.64,60.64,0,0,0-.65,10.73,33.55,33.55,0,0,0,1.17,8,23.1,23.1,0,0,0,2.15,5.27,18.5,18.5,0,0,0,7,6.89,40.15,40.15,0,0,0,9.36,3.77,12.34,12.34,0,0,0,4.42.91,8.48,8.48,0,0,0,2.79-.39c.74-.26,1.32-.48,1.76-.65a35,35,0,0,0,7.86-4.81,67.79,67.79,0,0,0,7-6.57q3.31-3.57,6.24-7.15t5.46-6.5a46.38,46.38,0,0,1,4.81-4.87,6.85,6.85,0,0,1,4.36-1.95q4.8-.14,5.85-1.63a2.73,2.73,0,0,0-.07-3.25,9.84,9.84,0,0,0-3.64-3.18,11.22,11.22,0,0,0-5-1.56,11.72,11.72,0,0,0-6.05,1.56,44,44,0,0,0-6.56,4.35,79.2,79.2,0,0,0-6.83,6.11q-3.44,3.45-7,6.89t-7,6.57a46.78,46.78,0,0,1-6.82,5.2,11.19,11.19,0,0,1-2.15,1,2.37,2.37,0,0,1-2.14-.26l-.13-.13a37.28,37.28,0,0,1-1.3-15.41,84.27,84.27,0,0,1,3.77-17.16A118.52,118.52,0,0,1,108.78,65,148.54,148.54,0,0,1,118,49.43a95.26,95.26,0,0,1,9.62-12.15A32.78,32.78,0,0,1,136,30.39a9.45,9.45,0,0,1,4.29-1.3,3.48,3.48,0,0,1,2.34.78,5.55,5.55,0,0,1,1.43,1.95,8.41,8.41,0,0,1,.65,2.6c.08.95.13,1.9.13,2.86l-2.6,3.38q-1.83,2.34-3.58,4.81a27.77,27.77,0,0,0-2.92,5.2,23.73,23.73,0,0,0-1.63,5.65,13.81,13.81,0,0,0,.33,5.79,11.56,11.56,0,0,0,2.92,5.2,8.52,8.52,0,0,0,5.14,2.6,6.2,6.2,0,0,0,4-.91,3.12,3.12,0,0,0,1.69-3.25,4.09,4.09,0,0,0-.52-1.43,7.17,7.17,0,0,1-.65-1.43,4.61,4.61,0,0,1,.26-3.71,27.37,27.37,0,0,1,1.95-3.44c2.08-3,4.13-6,6.17-8.91s4.05-5.83,6.05-8.77c.77-1.11,1.52-2.24,2.21-3.38,2.67,5.55,5.64,12.64,9.15,21.88C188.18,96.9,119.75,180.39,114.9,189.33Z"/><path class="cls-2" d="M232.14,26.35a3.43,3.43,0,0,1,1.13-.42,7.34,7.34,0,0,1,1.61.21,8.38,8.38,0,0,1,2.31,1.06,22.83,22.83,0,0,0,2.1,1.05,11.72,11.72,0,0,1,2.18,1.26,6.75,6.75,0,0,1,1.82,2.1A9.44,9.44,0,0,1,244.34,35a19.4,19.4,0,0,1-.14,5.12c-.28,2.2-.8,5.05-1.54,8.55s-1.8,7.83-3.16,13S236.44,72.94,234.39,80a164.71,164.71,0,0,1-7.15,20,110.29,110.29,0,0,1-8.62,16.26,47.67,47.67,0,0,1-9.47,10.93c-3.27,2.67-6.54,4-9.81,4.14a23.48,23.48,0,0,1-9.25-1.61,26.87,26.87,0,0,1-7.5-4.28,14.14,14.14,0,0,1-4.14-5.19,3.9,3.9,0,0,1,.85-4.62,3.48,3.48,0,0,1,2.52-1.12,4.26,4.26,0,0,1,2.52.91c.84.6,1.66,1.26,2.46,2a26.59,26.59,0,0,0,2.38,1.89,3.23,3.23,0,0,0,2.31.7c2-.18,4-1.38,6-3.57a58.83,58.83,0,0,0,6.24-8.2,110.1,110.1,0,0,0,6.1-10.93q2.94-6,5.46-12t4.42-11.07q1.89-5.12,2.87-8.35-3.93,8.57-8.27,16.48a51.6,51.6,0,0,1-8.83,12.26c-1.5,1.4-2.9,1.92-4.21,1.54l.14.14q-7-1.11-10.23-4.9a16.75,16.75,0,0,1-3.85-9.11,36.62,36.62,0,0,1,.77-11.92,123.77,123.77,0,0,1,3.64-13.32q2.39-6.86,4.21-11.63c1.21-3.18,2.29-5.8,3.22-7.85A59,59,0,0,1,202,31.68a3.24,3.24,0,0,1-.43-1,6.36,6.36,0,0,1,.14-1.12,3.69,3.69,0,0,1,.85-1.54,5.26,5.26,0,0,1,1.54-1.27,5.06,5.06,0,0,1,2.52-.56,8.15,8.15,0,0,1,3.3.78,10.68,10.68,0,0,1,3.57,2.87,7.5,7.5,0,0,1,1.82,3.78,14.64,14.64,0,0,1-.7,5.54q-1,3.57-3.22,9.46T205.65,64.2q-2,5.47-3.08,9.81t-1.83,7.71q1.55-2.1,4.35-6.86t6.24-10.73q3.43-6,7-12.4t6.51-11.85c2-3.59,3.62-6.63,5-9.11s2.13-3.85,2.31-4.14Z"/><path class="cls-2" d="M273.36,43.32q3.08-4.22,6.37-8.2t6.94-7.64a16.51,16.51,0,0,1,1.82-1.62,1.73,1.73,0,0,1,1.83-.21,4.11,4.11,0,0,1,1.54.63A10.77,10.77,0,0,1,294.1,28,10.46,10.46,0,0,1,296,30.63a5.62,5.62,0,0,1,.64,3.15,7,7,0,0,1-.71,2.11,25.27,25.27,0,0,1-1.26,2.24,67.83,67.83,0,0,0-7.57,17A105.76,105.76,0,0,0,283.45,73a6.84,6.84,0,0,1-3.79-.56,7.93,7.93,0,0,1-3.36-2.8,12.44,12.44,0,0,1-2-5.19,19.29,19.29,0,0,1,.42-7.57,36.64,36.64,0,0,1,2.8-7.92,24.39,24.39,0,0,1,4.63-6.52,25.82,25.82,0,0,0-4,4.07c-1.35,1.68-2.64,3.36-3.85,5.05a8.88,8.88,0,0,1-1,1.82A16,16,0,0,0,272.23,55a76.28,76.28,0,0,0-13,40v.7c-.47.75-1.45,1.12-2.95,1.12a10.57,10.57,0,0,1-5.53-2c-2.11-1.35-3.67-3.76-4.7-7.22A13.08,13.08,0,0,1,246,82a85.56,85.56,0,0,1,1.82-8.7q1.26-4.91,3.09-10.3t3.92-10.44q2.1-5.05,4.35-9.25a30.18,30.18,0,0,1,4.34-6.45,3.33,3.33,0,0,1,2.52-1.26q2,0,4.07,2.38A17.34,17.34,0,0,1,273.36,43.32Z"/><path class="cls-2" d="M310.78,29c-.65-.84-.26-1.57,1.19-2.18a11.82,11.82,0,0,1,4.56-.91,5.56,5.56,0,0,1,2.94.7,19.73,19.73,0,0,1,3.93,2.95,6.45,6.45,0,0,1,1.82,3.92,15.1,15.1,0,0,1-.84,6,56.62,56.62,0,0,1-4.07,9.25q-4.2,10.52-6.09,16.75a84.42,84.42,0,0,0-2.53,10,24.58,24.58,0,0,0-.42,6c.14,1.5.21,3,.21,4.63a11.93,11.93,0,0,0,.42,3.29c.28,1,.54,1.9.77,2.74a6,6,0,0,1,.22,2.38,2.85,2.85,0,0,1-1.41,2,5.89,5.89,0,0,1-3.43.14A12.4,12.4,0,0,1,303.91,95a19.16,19.16,0,0,1-4.06-3.57,22.85,22.85,0,0,1-3.37-5.19,19.87,19.87,0,0,1-1.68-9.6,52.66,52.66,0,0,1,1.89-11.22,105.33,105.33,0,0,1,4-11.63q2.38-5.82,4.62-10.79t3.86-8.7A16,16,0,0,0,310.78,29Zm7.15-16.68c.37-1.22.79-2.55,1.26-4a18.18,18.18,0,0,1,1.83-4,10.27,10.27,0,0,1,6.23.56,10.16,10.16,0,0,1,5,4.2,5.87,5.87,0,0,1,.63,1.82,13.31,13.31,0,0,1,.07,1.41,3.53,3.53,0,0,1-.42,1.82,4.58,4.58,0,0,1-1.12,1.26c-.47,1.22-.84,2.29-1.12,3.22a11.34,11.34,0,0,0-.42,3.23c0,.75,0,1.47-.07,2.17a2.67,2.67,0,0,1-.77,1.75,3.38,3.38,0,0,1-2.74.28A12.17,12.17,0,0,1,323.4,25a20.48,20.48,0,0,1-3.72-3,10,10,0,0,1-2.59-4.84c0-.84,0-1.66.07-2.45A4.85,4.85,0,0,1,317.93,12.34Z"/><path class="cls-2" d="M337,47.1q3.93-9.94,7.22-17.45T350,17c1.64-3.45,2.85-6.19,3.65-8.2s1.09-3.34.91-4a3.82,3.82,0,0,1,.35-3.3A3.12,3.12,0,0,1,357.74,0a7,7,0,0,1,4.07,1.54,11.59,11.59,0,0,1,3.36,3.37,9.91,9.91,0,0,1,1.26,5.39,32.8,32.8,0,0,1-1.54,8.76,111.92,111.92,0,0,1-5.05,13.32Q355.09,43.47,351.29,54t-6.38,19.27Q342.32,82,341,88.1a48.53,48.53,0,0,0-1.33,8.06,5.8,5.8,0,0,0,.63,2.74l1.12,2.1a5.55,5.55,0,0,1,.63,1.75c.09.56-.23,1.08-1,1.54a3.85,3.85,0,0,1-2.52.71,10.39,10.39,0,0,1-5.75-2.11,16.49,16.49,0,0,1-5.19-6,17.06,17.06,0,0,1-1.89-7.43,44,44,0,0,1,1-10.37,122.23,122.23,0,0,1,3.79-14Q333.07,57.19,337,47.1Z"/><path class="cls-2" d="M159,183.08a118.55,118.55,0,0,1,7.57-10.1,104.2,104.2,0,0,1,8.27-8.9,39.08,39.08,0,0,1,7.57-5.81c2.34-1.31,4.11-1.59,5.33-.85a14.36,14.36,0,0,1,2.38,1.41,10.57,10.57,0,0,1,2.52,2.52A8.52,8.52,0,0,1,194.1,165a9.37,9.37,0,0,1-.77,4.91,163.23,163.23,0,0,0-6.1,17.87,83.77,83.77,0,0,0-2.17,10.45,22.18,22.18,0,0,0-.22,5c.15.94.07,1.54-.21,1.82a4.84,4.84,0,0,1-2.24.5,8.37,8.37,0,0,1-3.15-.5,7.09,7.09,0,0,1-2.88-1.89,6.15,6.15,0,0,1-1.54-3.57,35.49,35.49,0,0,1-.42-7.08,64.33,64.33,0,0,1,.7-7.36q-3.93,3.65-7,7c-2.05,2.24-3.88,4.25-5.46,6-1.69,2.05-3.23,4-4.63,5.74h-.14a.42.42,0,0,0-.28-.14,1.58,1.58,0,0,1-.14.7,7,7,0,0,1-3.79.71,17.57,17.57,0,0,1-6.65-1.55,10.75,10.75,0,0,1-5.68-6q-1.55-3.79-.42-9.82A66.82,66.82,0,0,1,144.82,175a95.85,95.85,0,0,1,7-13.74,100.71,100.71,0,0,1,9-12.48,54.57,54.57,0,0,1,9.68-9.11q4.91-3.5,9.11-3.5a8.42,8.42,0,0,1,6.31,2.8,17.53,17.53,0,0,1,5.11,6.52q1.34,3.3-.07,5.26a1.36,1.36,0,0,1-1.82.49,13,13,0,0,1-2.24-1.27,20.36,20.36,0,0,0-2.25-1.33,1.46,1.46,0,0,0-1.82.14,26.85,26.85,0,0,0-5.61,4.49,65.45,65.45,0,0,0-6.09,7.36,102.7,102.7,0,0,0-7.5,12.4A89.08,89.08,0,0,0,159,183.08Z"/><path class="cls-2" d="M217,140.6a2.91,2.91,0,0,1-.42-1,5.53,5.53,0,0,1,.14-1.12,3.54,3.54,0,0,1,.84-1.54,5.09,5.09,0,0,1,1.54-1.26,5,5,0,0,1,2.52-.56,8.13,8.13,0,0,1,3.3.77,10.68,10.68,0,0,1,3.57,2.87,7.53,7.53,0,0,1,1.82,3.79,14.59,14.59,0,0,1-.7,5.53q-1,3.59-3.22,9.46t-5.75,15.56q-2,5.61-3.15,10a77.76,77.76,0,0,0-1.76,7.71q1.41-1.83,3.93-5.68l5.68-8.69q3.15-4.84,6.44-10.09t6.24-10c2-3.17,3.69-6,5.19-8.41s2.52-4.15,3.08-5.18h.14l.42-.85c.47-.74,1-1.54,1.48-2.38s1.05-1.63,1.61-2.38q-.42-.28,0-.63a4.29,4.29,0,0,1,1.12-.63,3.47,3.47,0,0,1,1.54.07,13.51,13.51,0,0,1,4.91,2,4.94,4.94,0,0,1,1.82,2.1,5.5,5.5,0,0,1,.28,3.86,24.75,24.75,0,0,1-1.4,3.85q-2.25,4.77-5,11.64t-5.32,14q-2.61,7.14-4.7,13.87t-3.08,11.22a51,51,0,0,0-.92,7.22,11.81,11.81,0,0,0,1.76,6.94,21.92,21.92,0,0,1,1.89,3.5,2.16,2.16,0,0,1-1,2.94,3,3,0,0,1-1.54.28,13.35,13.35,0,0,1-5-.7,15.72,15.72,0,0,1-4.56-2.38,16.35,16.35,0,0,1-3.5-3.64,12.9,12.9,0,0,1-2-4.63q-.71-3.09,1-12.9a32.59,32.59,0,0,1-5.61,8.41c-1.5,1.5-2.85,2-4.07,1.54v.15q-7-1.12-10.23-4.91a16.71,16.71,0,0,1-3.85-9.11,36.64,36.64,0,0,1,.77-11.92A123,123,0,0,1,206.78,166q2.39-6.87,4.21-11.64c1.21-3.18,2.29-5.79,3.22-7.85A59,59,0,0,1,217,140.6Z"/><path class="cls-2" d="M301.68,162.05a48.1,48.1,0,0,1-1.75,5.68c-.89,2.48-1.92,5.18-3.08,8.13s-2.46,6-3.86,9.11-2.8,6-4.2,8.69-2.72,4.91-3.93,6.73a10.84,10.84,0,0,1-3.08,3.43,8.24,8.24,0,0,1-1.4.28,19.67,19.67,0,0,1-5.75.28,22.57,22.57,0,0,1-5.12-1.26,13.24,13.24,0,0,1-5.12-3.5,21.88,21.88,0,0,1-3.71-6,20.75,20.75,0,0,1-1.47-8.2A43.51,43.51,0,0,1,261,174.25a99.12,99.12,0,0,1,5.68-15q5.88-12.9,12.4-18.79t12.27-5.88a10.63,10.63,0,0,1,7.15,2.8,18.37,18.37,0,0,1,4.48,6,26.77,26.77,0,0,1,2.11,6.72,25.3,25.3,0,0,1,.28,6.38,15.15,15.15,0,0,1-1.12,4.84c-.38.84-.78,1.28-1.19,1.33A1.67,1.67,0,0,1,301.68,162.05Zm-27.75,26.49a53.4,53.4,0,0,0,5-6.37,83.84,83.84,0,0,0,5.68-9.89q3.65-7.42,6.73-13.59t4.91-9.82a5,5,0,0,0-2-2q-1.26-.71-3.43,1.82a49.87,49.87,0,0,0-4.63,6.59c-1.63,2.71-3.25,5.68-4.83,8.9a94.52,94.52,0,0,0-3.93,9,52.38,52.38,0,0,0-2.31,7.43A49.68,49.68,0,0,0,273.93,188.54Zm20.46-29.15Q298,148.32,301.26,140t5.54-14q2.31-5.74,3.64-9a15.23,15.23,0,0,0,1.34-4.2,3.87,3.87,0,0,1-.07-3.72,3.06,3.06,0,0,1,2.87-1.61,6.72,6.72,0,0,1,4.2,1.68,10.11,10.11,0,0,1,3.09,3.51,12.27,12.27,0,0,1,1.12,5.74,38.61,38.61,0,0,1-1.54,9.47q-1.54,5.82-4.91,14.79-9.1,24.53-12.89,41.84t-2.25,28.39a5.35,5.35,0,0,0,1.19,2.59c.61.7,1.13,1.33,1.55,1.89a2.27,2.27,0,0,1,.49,1.75c-.1.61-.8,1.33-2.11,2.18a3.9,3.9,0,0,1-2.52.7,9.59,9.59,0,0,1-5.61-2.18,16.16,16.16,0,0,1-4.9-6.51,32.07,32.07,0,0,1-2.32-8.13,54.18,54.18,0,0,1-.42-11.29,97.83,97.83,0,0,1,2.18-15A192.6,192.6,0,0,1,294.39,159.39Z"/><path class="cls-2" d="M319.77,196.81a15.18,15.18,0,0,1-2-2.38,15,15,0,0,1-2.45-9.88,44.06,44.06,0,0,1,2.17-10.3,102.94,102.94,0,0,1,4.7-11,90.72,90.72,0,0,1,7.43-12.61,51.86,51.86,0,0,1,9.46-10.38A16.78,16.78,0,0,1,349.9,136a13.3,13.3,0,0,1,3,.42,13.49,13.49,0,0,1,3.29,1.26,9,9,0,0,1,2.6,2.1,4.46,4.46,0,0,1,1.05,3c0,1.4-.35,2.22-1.05,2.45a8.47,8.47,0,0,1-2.6.35,9.6,9.6,0,0,0-5.11,1.75,31.47,31.47,0,0,0-4.28,3.58,63.89,63.89,0,0,0-12.13,18.29,58,58,0,0,0-5,21.38,13.19,13.19,0,0,0,.14,4.34,17.41,17.41,0,0,0,7.08-2.73,51.8,51.8,0,0,0,5.81-5.12,52.33,52.33,0,0,0,8.41-11,31.05,31.05,0,0,0,4.07-13.25,5.83,5.83,0,0,0-.49-2.8,3.25,3.25,0,0,0-2.45-1.12,22.88,22.88,0,0,0-7.57.14,17.45,17.45,0,0,1,2.17-3.72,32.2,32.2,0,0,1,2.87-3.29,16.82,16.82,0,0,1,2.39-1.75,4.44,4.44,0,0,1,2.8-.64,5.25,5.25,0,0,1,2.73.92,23.14,23.14,0,0,1,2.95,2.17,29.89,29.89,0,0,1,2.73,2.66c.84.94,1.49,1.68,2,2.24a17.48,17.48,0,0,1,3.51,10.31,29,29,0,0,1-1.82,11,34.63,34.63,0,0,1-2.88,5.33,69.69,69.69,0,0,1-4.27,5.89c-1.59,2-3.23,3.81-4.91,5.53a32.3,32.3,0,0,1-4.77,4.14A24.18,24.18,0,0,1,336,204.38a27,27,0,0,1-4.35-.42,23.88,23.88,0,0,1-4.84-1.33,18,18,0,0,1-4.27-2.38A8.44,8.44,0,0,1,319.77,196.81Z"/><path class="cls-2" d="M393.78,137.94c-.66-.84-.26-1.56,1.19-2.17a11.64,11.64,0,0,1,4.56-.91,5.47,5.47,0,0,1,2.94.7,19,19,0,0,1,3.92,2.94,6.46,6.46,0,0,1,1.83,3.92,15.45,15.45,0,0,1-.84,6,57.93,57.93,0,0,1-4.07,9.26q-4.2,10.5-6.1,16.75a84.44,84.44,0,0,0-2.52,10,24.63,24.63,0,0,0-.42,6q.21,2.24.21,4.62a12,12,0,0,0,.42,3.3c.28,1,.54,1.89.77,2.73a6.19,6.19,0,0,1,.21,2.38,2.82,2.82,0,0,1-1.4,2,6,6,0,0,1-3.43.14,12.44,12.44,0,0,1-4.14-1.76,18.39,18.39,0,0,1-4.06-3.57,22.31,22.31,0,0,1-3.37-5.19,19.87,19.87,0,0,1-1.68-9.6,52,52,0,0,1,1.89-11.21,102.76,102.76,0,0,1,4-11.64c1.58-3.88,3.13-7.47,4.62-10.79s2.78-6.22,3.86-8.69A16.07,16.07,0,0,0,393.78,137.94Zm7.15-16.68c.37-1.22.79-2.55,1.26-4a18.37,18.37,0,0,1,1.82-4A10.62,10.62,0,0,1,415.23,118a5.83,5.83,0,0,1,.63,1.83c0,.47.07.93.07,1.4a3.5,3.5,0,0,1-.42,1.82,4.75,4.75,0,0,1-1.12,1.26c-.47,1.22-.85,2.29-1.13,3.23a11.22,11.22,0,0,0-.42,3.22c0,.75,0,1.47-.07,2.17a2.62,2.62,0,0,1-.77,1.75,3.36,3.36,0,0,1-2.73.29,12.71,12.71,0,0,1-2.88-1.13,20.44,20.44,0,0,1-3.71-3,9.84,9.84,0,0,1-2.59-4.84c0-.84,0-1.65.07-2.45A4.77,4.77,0,0,1,400.93,121.26Z"/><path class="cls-2" d="M413.12,177.61a286.36,286.36,0,0,1,11.64-27.55q4.75-9.31,4.76-10.72c-.65-1.31-.7-2.36-.14-3.15a3.2,3.2,0,0,1,2.81-1.19,7.27,7.27,0,0,1,1.89.28,7.78,7.78,0,0,1,2.17,1,9.59,9.59,0,0,1,2.6,2.87,9.27,9.27,0,0,1,1,4.77,29.09,29.09,0,0,1-1.4,7.78,104.09,104.09,0,0,1-4.63,12c-.65,1.4-1.24,2.74-1.75,4l-1.47,3.57q6.3-9.81,11.28-16.05a96.92,96.92,0,0,1,8.76-9.81,39.77,39.77,0,0,1,6.38-5.12,22.29,22.29,0,0,1,3.86-2,4.85,4.85,0,0,1,3-2,4.51,4.51,0,0,1,3.71.14,11.17,11.17,0,0,1,3.16,2.59,7.08,7.08,0,0,1,1.47,3.58,13.37,13.37,0,0,1-.56,5.18,43.13,43.13,0,0,1-3.08,7.57q-4.35,10.23-7.86,20.19t-5.95,18.15q-2.46,8.2-3.72,13.95a45.71,45.71,0,0,0-1.26,7.57,4.68,4.68,0,0,0,.63,2.45q.63,1,1,1.89a4.6,4.6,0,0,1,.49,1.55c.05.46-.25.88-.91,1.26a5.06,5.06,0,0,1-2.52.56,10,10,0,0,1-5.4-1.89,14.93,14.93,0,0,1-4.83-5.54,15.85,15.85,0,0,1-1.48-6.87,43.11,43.11,0,0,1,1.13-9.6,133.28,133.28,0,0,1,3.57-12.9q2.39-7.35,5.75-16.75c.37-1,.72-2,1.05-2.8s.68-1.69,1.05-2.53a143.64,143.64,0,0,0-8.69,11.71q-4.07,6.09-7.43,11.63t-5.82,10.1q-2.44,4.54-3.71,7.08a1.5,1.5,0,0,1-.84,2.24.36.36,0,0,0-.28.14l-.14.28-.28-.28a11.84,11.84,0,0,1-2.39-.35,17.2,17.2,0,0,1-3.22-1.12,15.39,15.39,0,0,1-3.3-2.11,9.92,9.92,0,0,1-2.59-3.29,17.57,17.57,0,0,1-1.75-5.12,17,17,0,0,1,0-4.83,26,26,0,0,1,1.47-5.54C411.21,182.68,412.09,180.32,413.12,177.61Z"/></g></g></svg>