<svg width="154" height="155" viewBox="0 0 154 155" fill="none" xmlns="http://www.w3.org/2000/svg">
<path d="M34.995 35.5931H15V15.5981H34.995V35.5931ZM18.9912 31.6019H31.0038V19.5894H18.9912V31.6019Z" fill="#0FAE96"/>
<path d="M139 35.5931H119.005V15.5981H139V35.5931ZM122.996 31.6019H134.989V19.5894H122.996V31.6019Z" fill="#0FAE96"/>
<path d="M86.9975 35.5931H67.0025V15.5981H86.9975V35.5931ZM70.9937 31.6019H83.0062V19.5894H70.9937V31.6019Z" fill="#0FAE96"/>
<path d="M34.995 139.598H15V119.603H34.995V139.598ZM18.9912 135.607H31.0038V123.594H18.9912V135.607Z" fill="#0FAE96"/>
<path d="M34.995 87.5956H15V67.6006H34.995V87.5956ZM18.9912 83.6044H31.0038V71.5919H18.9912V83.6044Z" fill="#0FAE96"/>
<path d="M139 87.5956H119.005V67.6006H139V87.5956ZM122.996 83.6044H134.989V71.5919H122.996V83.6044Z" fill="#0FAE96"/>
<path d="M139 139.598H119.005V119.603H139V139.598ZM122.996 135.607H134.989V123.594H122.996V135.607Z" fill="#0FAE96"/>
<path d="M86.9975 139.598H67.0025V119.603H86.9975V139.598ZM70.9937 135.607H83.0062V123.594H70.9937V135.607Z" fill="#0FAE96"/>
<path d="M68.9981 23.6H32.9994V27.5913H68.9981V23.6Z" fill="#0FAE96"/>
<path d="M121.001 23.6H85.0019V27.5913H121.001V23.6Z" fill="#0FAE96"/>
<path d="M68.9981 127.605H32.9994V131.596H68.9981V127.605Z" fill="#0FAE96"/>
<path d="M121.001 127.605H85.0019V131.596H121.001V127.605Z" fill="#0FAE96"/>
<path d="M130.998 33.5975H127.007V69.5963H130.998V33.5975Z" fill="#0FAE96"/>
<path d="M130.998 85.6H127.007V121.599H130.998V85.6Z" fill="#0FAE96"/>
<path d="M26.9931 33.5975H23.0019V69.5963H26.9931V33.5975Z" fill="#0FAE96"/>
<path d="M26.9931 85.6H23.0019V121.599H26.9931V85.6Z" fill="#0FAE96"/>
<path d="M77 119.351L53.75 54.3481L118.753 77.5981L88.625 89.2231L77 119.351ZM60.2987 60.8969L77 107.843L85.3894 86.0456L107.244 77.5981L60.2987 60.8969Z" fill="#0FAE96"/>
<path d="M60.9962 39.6038H57.005V47.6056H60.9962V39.6038Z" fill="#0FAE96"/>
<path d="M46.2702 44.0504L43.448 46.8726L49.1062 52.5308L51.9284 49.7086L46.2702 44.0504Z" fill="#0FAE96"/>
<path d="M47.0075 57.6031H39.0056V61.5944H47.0075V57.6031Z" fill="#0FAE96"/>
<path d="M49.1042 66.6648L43.446 72.323L46.2683 75.1452L51.9265 69.487L49.1042 66.6648Z" fill="#0FAE96"/>
<path d="M60.9962 71.5919H57.005V79.5938H60.9962V71.5919Z" fill="#0FAE96"/>
<path d="M78.9956 57.6031H70.9937V61.5944H78.9956V57.6031Z" fill="#0FAE96"/>
<path d="M71.7205 44.0523L66.0623 49.7105L68.8846 52.5328L74.5428 46.8746L71.7205 44.0523Z" fill="#0FAE96"/>
</svg>
