<svg width="154" height="155" viewBox="0 0 154 155" fill="none" xmlns="http://www.w3.org/2000/svg">
<path d="M139 127.598H15V27.5981H139V127.598ZM18.9912 123.607H135.009V31.5896H18.9912V123.607Z" fill="#0FAE96"/>
<path d="M93.0037 79.6036H23.0019V35.6005H93.0037V79.6036ZM26.9931 75.5927H88.9931V39.5919H26.9931V75.5927Z" fill="#0FAE96"/>
<path d="M130.998 35.6005H96.995V39.5919H130.998V35.6005Z" fill="#0FAE96"/>
<path d="M130.998 43.6028H96.995V47.5943H130.998V43.6028Z" fill="#0FAE96"/>
<path d="M130.998 51.6051H96.995V55.5966H130.998V51.6051Z" fill="#0FAE96"/>
<path d="M130.998 59.6074H96.995V63.5989H130.998V59.6074Z" fill="#0FAE96"/>
<path d="M130.998 67.6098H96.995V71.6012H130.998V67.6098Z" fill="#0FAE96"/>
<path d="M130.998 75.5927H96.995V79.5842H130.998V75.5927Z" fill="#0FAE96"/>
<path d="M57.005 119.596H23.0019V83.595H57.005V119.596ZM26.9931 115.604H52.9944V87.664H26.9931V115.604Z" fill="#0FAE96"/>
<path d="M93.0037 119.596H60.9963V83.595H93.0037V119.596ZM65.0069 115.604H88.9931V87.664H65.0069V115.604Z" fill="#0FAE96"/>
<path d="M130.998 119.596H96.995V83.595H130.998V119.596ZM101.006 115.604H127.007V87.664H101.006V115.604Z" fill="#0FAE96"/>
<path d="M57.005 71.6012C54.2345 71.6012 51.5261 70.7796 49.2225 69.2403C46.9189 67.701 45.1234 65.5131 44.0632 62.9533C43.0029 60.3935 42.7255 57.5768 43.266 54.8593C43.8065 52.1419 45.1407 49.6457 47.0998 47.6865C49.0588 45.7274 51.5548 44.3931 54.2722 43.8526C56.9895 43.3121 59.806 43.5895 62.3657 44.6498C64.9253 45.7101 67.1131 47.5056 68.6523 49.8094C70.1916 52.1132 71.0131 54.8216 71.0131 57.5923C71.0131 61.3077 69.5373 64.8709 66.9102 67.4981C64.2832 70.1253 60.7202 71.6012 57.005 71.6012ZM57.005 47.5943C55.0277 47.5943 53.0948 48.1806 51.4507 49.2792C49.8066 50.3778 48.5252 51.9393 47.7685 53.7662C47.0118 55.5931 46.8138 57.6034 47.1996 59.5429C47.5854 61.4823 48.5375 63.2638 49.9357 64.662C51.3339 66.0603 53.1153 67.0125 55.0546 67.3983C56.9939 67.7841 59.0041 67.5861 60.8309 66.8293C62.6577 66.0726 64.2191 64.7911 65.3176 63.147C66.4162 61.5028 67.0025 59.5698 67.0025 57.5923C66.9974 54.9423 65.9424 52.4022 64.0686 50.5283C62.1949 48.6544 59.6549 47.5994 57.005 47.5943Z" fill="#0FAE96"/>
</svg>
